<svg width="14" height="18" viewBox="0 0 14 18" fill="none" xmlns="http://www.w3.org/2000/svg">
<path fill-rule="evenodd" clip-rule="evenodd" d="M13.6667 7.42195C13.6667 3.75843 10.6871 0.666748 7.00001 0.666748C3.31294 0.666748 0.333344 3.75843 0.333344 7.42195C0.333344 9.98929 1.97195 12.9806 5.1641 16.5142C6.09216 17.5417 7.66655 17.6122 8.68051 16.6717C8.73457 16.6216 8.78642 16.569 8.8359 16.5143C12.0281 12.9806 13.6667 9.9893 13.6667 7.42195ZM7.00001 4.83342C5.62001 4.83342 4.50001 5.95342 4.50001 7.33342C4.50001 8.71342 5.62001 9.83342 7.00001 9.83342C8.38001 9.83342 9.50001 8.71342 9.50001 7.33342C9.50001 5.95342 8.38001 4.83342 7.00001 4.83342Z" fill="#AEB0B8"/>
</svg>
